<svg xmlns="http://www.w3.org/2000/svg" viewBox="2 30 96 80" fill="black">
  <path d="m50 33.125c-15.438 0-44.609 2.2188-44.609 10.625v12.5c0 8.4062 29.172 10.625 44.609 10.625s44.609-2.2188 44.609-10.625v-12.5c0-8.4062-29.172-10.625-44.609-10.625zm0 12.719c12.719 0 24.422 1.0156 30.922 2.5781-7.0156 1.5781-17.422 2.8281-30.922 2.8281s-23.906-1.25-30.922-2.8281c6.5-1.5625 18.203-2.5781 30.922-2.5781zm41.484 10.406c0 2.5469-14.641 7.5-41.484 7.5s-41.484-4.9531-41.484-7.5v-8.1875c7.9375 4.8906 29.109 6.3125 41.484 6.3125s33.547-1.4219 41.484-6.3125z" />
  <g transform="translate(0, 40)">
    <path d="m50 33.125c-15.438 0-44.609 2.2188-44.609 10.625v12.5c0 8.4062 29.172 10.625 44.609 10.625s44.609-2.2188 44.609-10.625v-12.5c0-8.4062-29.172-10.625-44.609-10.625zm0 12.719c12.719 0 24.422 1.0156 30.922 2.5781-7.0156 1.5781-17.422 2.8281-30.922 2.8281s-23.906-1.25-30.922-2.8281c6.5-1.5625 18.203-2.5781 30.922-2.5781zm41.484 10.406c0 2.5469-14.641 7.5-41.484 7.5s-41.484-4.9531-41.484-7.5v-8.1875c7.9375 4.8906 29.109 6.3125 41.484 6.3125s33.547-1.4219 41.484-6.3125z" />
  </g>
</svg>
